<svg xmlns="http://www.w3.org/2000/svg" xmlns:xlink="http://www.w3.org/1999/xlink" width="1200" zoomAndPan="magnify" viewBox="0 0 900 899.99999" height="1200" preserveAspectRatio="xMidYMid meet" version="1.0"><defs><clipPath id="60d17f78d9"><path d="M 507 507 L 899.644531 507 L 899.644531 899.644531 L 507 899.644531 Z M 507 507 " clip-rule="nonzero"/></clipPath></defs><path fill="#d1dddf" d="M 412.378906 30.78125 C 634.183594 30.78125 813.972656 210.59375 813.972656 432.375 C 813.972656 654.179688 634.183594 833.996094 412.378906 833.996094 C 190.597656 833.996094 10.785156 654.179688 10.785156 432.375 C 10.785156 210.59375 190.597656 30.78125 412.378906 30.78125 " fill-opacity="1" fill-rule="evenodd"/><g clip-path="url(#60d17f78d9)"><path fill="#5c5452" d="M 563.929688 670.113281 L 728.125 834.28125 C 757.761719 863.917969 805.074219 864.804688 834.9375 834.9375 C 864.117188 805.761719 864.117188 757.90625 834.9375 728.726562 L 670.144531 563.902344 C 642.480469 606.265625 606.296875 642.425781 563.929688 670.113281 Z M 698.117188 864.976562 L 514.558594 681.382812 C 504.171875 671.457031 506.289062 654.09375 519.105469 647.085938 C 572.570312 617.851562 616.765625 573.941406 646.3125 520.707031 C 652.320312 507.0625 670.371094 503.457031 681.097656 514.214844 L 865.289062 698.40625 C 911.144531 744.230469 911.117188 819.433594 865.289062 865.289062 C 819.234375 911.34375 744.089844 910.914062 698.117188 864.976562 " fill-opacity="1" fill-rule="nonzero"/></g><path fill="#5c5452" d="M 686.503906 364.664062 C 686.503906 186.9375 542.417969 42.878906 364.691406 42.878906 C 186.964844 42.878906 42.910156 186.9375 42.910156 364.664062 C 42.910156 542.390625 186.964844 686.476562 364.691406 686.476562 C 542.417969 686.476562 686.503906 542.390625 686.503906 364.664062 Z M 729.414062 364.664062 C 729.414062 566.074219 566.132812 729.386719 364.691406 729.386719 C 163.28125 729.386719 0 566.074219 0 364.664062 C 0 163.253906 163.28125 -0.0273438 364.691406 -0.0273438 C 566.132812 -0.0273438 729.414062 163.253906 729.414062 364.664062 " fill-opacity="1" fill-rule="nonzero"/><path fill="#5c5452" d="M 256.277344 261.511719 L 256.277344 446.789062 C 262.972656 444.417969 270.207031 443.128906 277.730469 443.128906 L 470.789062 443.128906 L 470.789062 228.617188 L 289.171875 228.617188 C 271.039062 228.328125 256.277344 243.546875 256.277344 261.511719 Z M 289.804688 185.707031 L 492.246094 185.707031 C 504.085938 185.707031 513.699219 195.320312 513.699219 207.160156 L 513.699219 464.582031 C 513.699219 476.425781 504.085938 486.039062 492.246094 486.039062 L 277.730469 486.039062 C 265.804688 486.039062 256.277344 495.589844 256.277344 507.492188 L 213.367188 507.492188 L 213.367188 261.511719 C 213.367188 219.804688 247.867188 184.992188 289.804688 185.707031 " fill-opacity="1" fill-rule="nonzero"/><path fill="#5c5452" d="M 492.246094 571.855469 L 277.730469 571.855469 C 242.175781 571.855469 213.367188 543.046875 213.367188 507.492188 C 213.367188 471.992188 242.230469 443.128906 277.730469 443.128906 L 492.246094 443.128906 C 504.085938 443.128906 513.699219 452.742188 513.699219 464.582031 L 513.699219 550.398438 C 513.699219 562.242188 504.085938 571.855469 492.246094 571.855469 Z M 277.730469 528.945312 L 470.789062 528.945312 L 470.789062 486.039062 L 277.730469 486.039062 C 265.804688 486.039062 256.277344 495.589844 256.277344 507.492188 C 256.277344 519.335938 265.859375 528.945312 277.730469 528.945312 " fill-opacity="1" fill-rule="nonzero"/><path fill="#5c5452" d="M 342.066406 207.132812 C 342.066406 195.289062 332.453125 185.679688 320.609375 185.679688 C 308.769531 185.679688 299.15625 195.289062 299.15625 207.132812 L 299.15625 357.339844 C 299.15625 369.183594 308.769531 378.796875 320.609375 378.796875 C 332.453125 378.796875 342.066406 369.183594 342.066406 357.339844 L 342.066406 207.132812 " fill-opacity="1" fill-rule="nonzero"/><path fill="#5c5452" d="M 567.105469 475.710938 C 561.414062 486.09375 565.21875 499.109375 575.574219 504.800781 C 585.929688 510.496094 598.972656 506.71875 604.664062 496.335938 C 643.855469 424.992188 649.03125 339.261719 619.023438 263.628906 C 614.675781 252.671875 602.234375 247.296875 591.277344 251.644531 C 580.292969 255.992188 574.941406 268.40625 579.292969 279.390625 C 604.578125 343.09375 600.117188 415.640625 567.105469 475.710938 " fill-opacity="1" fill-rule="nonzero"/><path fill="#5c5452" d="M 150.121094 279.390625 C 154.46875 268.40625 149.09375 255.992188 138.136719 251.644531 C 127.152344 247.296875 114.738281 252.671875 110.390625 263.628906 C 80.382812 339.289062 85.558594 424.992188 124.75 496.335938 C 130.441406 506.71875 143.484375 510.496094 153.839844 504.800781 C 164.195312 499.109375 168 486.09375 162.308594 475.710938 C 129.269531 415.609375 124.835938 343.125 150.121094 279.390625 " fill-opacity="1" fill-rule="nonzero"/><path fill="#5c5452" d="M 792.601562 775.667969 C 792.601562 769.71875 787.796875 764.914062 781.875 764.914062 C 775.953125 764.914062 771.121094 769.71875 771.121094 775.667969 C 771.121094 781.589844 775.953125 786.394531 781.875 786.394531 C 787.796875 786.394531 792.601562 781.589844 792.601562 775.667969 Z M 835.511719 775.667969 C 835.511719 805.277344 811.484375 829.304688 781.875 829.304688 C 752.242188 829.304688 728.210938 805.277344 728.210938 775.667969 C 728.210938 746.035156 752.242188 722.003906 781.875 722.003906 C 811.484375 722.003906 835.511719 746.035156 835.511719 775.667969 " fill-opacity="1" fill-rule="nonzero"/></svg>