<svg xmlns="http://www.w3.org/2000/svg" xmlns:xlink="http://www.w3.org/1999/xlink" width="480" zoomAndPan="magnify" viewBox="0 0 360 359.999987" height="480" preserveAspectRatio="xMidYMid meet" version="1.0"><defs><clipPath id="ac2c8c8606"><path d="M 203 203 L 359.859375 203 L 359.859375 359.859375 L 203 359.859375 Z M 203 203 " clip-rule="nonzero"/></clipPath></defs><path fill="#e7865f" d="M 164.953125 12.3125 C 253.671875 12.3125 325.589844 84.238281 325.589844 172.949219 C 325.589844 261.671875 253.671875 333.597656 164.953125 333.597656 C 76.238281 333.597656 4.3125 261.671875 4.3125 172.949219 C 4.3125 84.238281 76.238281 12.3125 164.953125 12.3125 " fill-opacity="1" fill-rule="evenodd"/><g clip-path="url(#ac2c8c8606)"><path fill="#383838" d="M 225.570312 268.046875 L 291.25 333.710938 C 303.105469 345.566406 322.03125 345.921875 333.976562 333.976562 C 345.648438 322.304688 345.648438 303.164062 333.976562 291.492188 L 268.058594 225.5625 C 256.992188 242.507812 242.519531 256.96875 225.570312 268.046875 Z M 279.246094 345.992188 L 205.824219 272.554688 C 201.667969 268.582031 202.515625 261.636719 207.640625 258.835938 C 229.027344 247.140625 246.707031 229.578125 258.523438 208.28125 C 260.929688 202.824219 268.148438 201.382812 272.4375 205.6875 L 346.117188 279.363281 C 364.457031 297.691406 364.445312 327.773438 346.117188 346.117188 C 327.695312 364.539062 297.636719 364.367188 279.246094 345.992188 " fill-opacity="1" fill-rule="nonzero"/></g><path fill="#383838" d="M 274.601562 145.867188 C 274.601562 74.773438 216.96875 17.152344 145.875 17.152344 C 74.785156 17.152344 17.164062 74.773438 17.164062 145.867188 C 17.164062 216.957031 74.785156 274.589844 145.875 274.589844 C 216.96875 274.589844 274.601562 216.957031 274.601562 145.867188 Z M 291.765625 145.867188 C 291.765625 226.429688 226.453125 291.753906 145.875 291.753906 C 65.3125 291.753906 0 226.429688 0 145.867188 C 0 65.300781 65.3125 -0.0117188 145.875 -0.0117188 C 226.453125 -0.0117188 291.765625 65.300781 291.765625 145.867188 " fill-opacity="1" fill-rule="nonzero"/><path fill="#383838" d="M 102.511719 104.605469 L 102.511719 178.714844 C 105.1875 177.765625 108.082031 177.25 111.09375 177.25 L 188.316406 177.25 L 188.316406 91.445312 L 115.667969 91.445312 C 108.414062 91.332031 102.511719 97.417969 102.511719 104.605469 Z M 115.921875 74.28125 L 196.898438 74.28125 C 201.632812 74.28125 205.480469 78.128906 205.480469 82.863281 L 205.480469 185.832031 C 205.480469 190.570312 201.632812 194.414062 196.898438 194.414062 L 111.09375 194.414062 C 106.320312 194.414062 102.511719 198.234375 102.511719 202.996094 L 85.347656 202.996094 L 85.347656 104.605469 C 85.347656 87.921875 99.148438 73.996094 115.921875 74.28125 " fill-opacity="1" fill-rule="nonzero"/><path fill="#383838" d="M 196.898438 228.742188 L 111.09375 228.742188 C 96.871094 228.742188 85.347656 217.21875 85.347656 202.996094 C 85.347656 188.796875 96.890625 177.25 111.09375 177.25 L 196.898438 177.25 C 201.632812 177.25 205.480469 181.097656 205.480469 185.832031 L 205.480469 220.160156 C 205.480469 224.898438 201.632812 228.742188 196.898438 228.742188 Z M 111.09375 211.578125 L 188.316406 211.578125 L 188.316406 194.414062 L 111.09375 194.414062 C 106.320312 194.414062 102.511719 198.234375 102.511719 202.996094 C 102.511719 207.734375 106.34375 211.578125 111.09375 211.578125 " fill-opacity="1" fill-rule="nonzero"/><path fill="#383838" d="M 136.828125 82.851562 C 136.828125 78.117188 132.980469 74.273438 128.242188 74.273438 C 123.507812 74.273438 119.664062 78.117188 119.664062 82.851562 L 119.664062 142.9375 C 119.664062 147.671875 123.507812 151.519531 128.242188 151.519531 C 132.980469 151.519531 136.828125 147.671875 136.828125 142.9375 L 136.828125 82.851562 " fill-opacity="1" fill-rule="nonzero"/><path fill="#383838" d="M 226.84375 190.285156 C 224.566406 194.4375 226.085938 199.644531 230.230469 201.921875 C 234.371094 204.199219 239.589844 202.6875 241.867188 198.535156 C 257.542969 169.996094 259.613281 135.703125 247.609375 105.453125 C 245.871094 101.070312 240.894531 98.917969 236.511719 100.65625 C 232.117188 102.398438 229.976562 107.363281 231.71875 111.757812 C 241.832031 137.238281 240.046875 166.257812 226.84375 190.285156 " fill-opacity="1" fill-rule="nonzero"/><path fill="#383838" d="M 60.046875 111.757812 C 61.789062 107.363281 59.636719 102.398438 55.253906 100.65625 C 50.859375 98.917969 45.894531 101.070312 44.15625 105.453125 C 32.152344 135.714844 34.222656 169.996094 49.898438 198.535156 C 52.175781 202.6875 57.394531 204.199219 61.535156 201.921875 C 65.679688 199.644531 67.199219 194.4375 64.921875 190.285156 C 51.707031 166.242188 49.933594 137.25 60.046875 111.757812 " fill-opacity="1" fill-rule="nonzero"/><path fill="#383838" d="M 317.039062 310.265625 C 317.039062 307.886719 315.117188 305.964844 312.75 305.964844 C 310.382812 305.964844 308.449219 307.886719 308.449219 310.265625 C 308.449219 312.636719 310.382812 314.558594 312.75 314.558594 C 315.117188 314.558594 317.039062 312.636719 317.039062 310.265625 Z M 334.203125 310.265625 C 334.203125 322.109375 324.59375 331.722656 312.75 331.722656 C 300.898438 331.722656 291.285156 322.109375 291.285156 310.265625 C 291.285156 298.414062 300.898438 288.800781 312.75 288.800781 C 324.59375 288.800781 334.203125 298.414062 334.203125 310.265625 " fill-opacity="1" fill-rule="nonzero"/></svg>