<svg xmlns="http://www.w3.org/2000/svg" xmlns:xlink="http://www.w3.org/1999/xlink" width="480" zoomAndPan="magnify" viewBox="0 0 360 359.999987" height="480" preserveAspectRatio="xMidYMid meet" version="1.0"><defs><clipPath id="f430e7bf1f"><path d="M 2.050781 0 L 346.519531 0 L 346.519531 344.46875 L 2.050781 344.46875 Z M 2.050781 0 " clip-rule="nonzero"/></clipPath><clipPath id="7328212873"><path d="M 174.285156 0 C 79.160156 0 2.050781 77.113281 2.050781 172.234375 C 2.050781 267.355469 79.160156 344.46875 174.285156 344.46875 C 269.40625 344.46875 346.519531 267.355469 346.519531 172.234375 C 346.519531 77.113281 269.40625 0 174.285156 0 Z M 174.285156 0 " clip-rule="nonzero"/></clipPath><clipPath id="b967cd849b"><path d="M 2.050781 3 L 246 3 L 246 303 L 2.050781 303 Z M 2.050781 3 " clip-rule="nonzero"/></clipPath></defs><g clip-path="url(#f430e7bf1f)"><g clip-path="url(#7328212873)"><path fill="#ffffff" d="M 2.050781 0 L 346.519531 0 L 346.519531 344.46875 L 2.050781 344.46875 Z M 2.050781 0 " fill-opacity="1" fill-rule="nonzero"/></g></g><g clip-path="url(#b967cd849b)"><path fill="#BB5933" d="M 183.90625 302.925781 L 42.382812 302.925781 C 20.144531 302.925781 2.050781 284.832031 2.050781 262.585938 L 2.050781 44.050781 C 2.050781 21.808594 20.144531 3.710938 42.382812 3.710938 L 215.269531 3.710938 C 232.132812 3.710938 245.855469 17.429688 245.855469 34.296875 L 245.855469 148.664062 C 245.855469 154.785156 240.898438 159.746094 234.773438 159.746094 C 228.648438 159.746094 223.691406 154.785156 223.691406 148.664062 L 223.691406 34.296875 C 223.691406 29.652344 219.914062 25.875 215.269531 25.875 L 42.382812 25.875 C 32.363281 25.875 24.214844 34.03125 24.214844 44.050781 L 24.214844 262.585938 C 24.214844 272.609375 32.363281 280.761719 42.382812 280.761719 L 183.90625 280.761719 C 190.03125 280.761719 194.988281 285.726562 194.988281 291.84375 C 194.988281 297.964844 190.03125 302.925781 183.90625 302.925781 Z M 183.90625 302.925781 " fill-opacity="1" fill-rule="nonzero"/></g><path fill="#BB5933" d="M 57.460938 302.925781 C 51.335938 302.925781 46.378906 297.964844 46.378906 291.84375 L 46.378906 14.792969 C 46.378906 8.675781 51.335938 3.710938 57.460938 3.710938 C 63.585938 3.710938 68.542969 8.675781 68.542969 14.792969 L 68.542969 291.84375 C 68.542969 297.964844 63.585938 302.925781 57.460938 302.925781 Z M 57.460938 302.925781 " fill-opacity="1" fill-rule="nonzero"/><path fill="#BB5933" d="M 190.445312 125.613281 L 101.789062 125.613281 C 95.664062 125.613281 90.707031 120.652344 90.707031 114.53125 L 90.707031 59.121094 C 90.707031 53.003906 95.664062 48.039062 101.789062 48.039062 L 190.445312 48.039062 C 196.570312 48.039062 201.527344 53.003906 201.527344 59.121094 L 201.527344 114.53125 C 201.527344 120.652344 196.570312 125.613281 190.445312 125.613281 Z M 112.871094 103.449219 L 179.363281 103.449219 L 179.363281 70.203125 L 112.871094 70.203125 Z M 112.871094 103.449219 " fill-opacity="1" fill-rule="nonzero"/><path fill="#BB5933" d="M 175.8125 175.484375 L 101.789062 175.484375 C 95.664062 175.484375 90.707031 170.523438 90.707031 164.402344 C 90.707031 158.28125 95.664062 153.320312 101.789062 153.320312 L 175.8125 153.320312 C 181.9375 153.320312 186.894531 158.28125 186.894531 164.402344 C 186.894531 170.523438 181.9375 175.484375 175.8125 175.484375 Z M 175.8125 175.484375 " fill-opacity="1" fill-rule="nonzero"/><path fill="#BB5933" d="M 148 219.8125 L 101.789062 219.8125 C 95.664062 219.8125 90.707031 214.851562 90.707031 208.730469 C 90.707031 202.609375 95.664062 197.648438 101.789062 197.648438 L 148 197.648438 C 154.125 197.648438 159.082031 202.609375 159.082031 208.730469 C 159.082031 214.851562 154.125 219.8125 148 219.8125 Z M 148 219.8125 " fill-opacity="1" fill-rule="nonzero"/><path fill="#BB5933" d="M 151.320312 264.140625 L 101.789062 264.140625 C 95.664062 264.140625 90.707031 259.179688 90.707031 253.058594 C 90.707031 246.9375 95.664062 241.976562 101.789062 241.976562 L 151.320312 241.976562 C 157.445312 241.976562 162.402344 246.9375 162.402344 253.058594 C 162.402344 259.179688 157.445312 264.140625 151.320312 264.140625 Z M 151.320312 264.140625 " fill-opacity="1" fill-rule="nonzero"/><path fill="#BB5933" d="M 223.691406 313.964844 C 200.984375 313.964844 178.28125 305.324219 160.996094 288.039062 C 126.429688 253.472656 126.429688 197.230469 160.996094 162.664062 C 195.5625 128.097656 251.816406 128.097656 286.382812 162.664062 C 320.949219 197.230469 320.949219 253.472656 286.382812 288.039062 C 269.101562 305.324219 246.394531 313.964844 223.691406 313.964844 Z M 223.691406 158.894531 C 206.65625 158.894531 189.632812 165.375 176.667969 178.335938 C 150.75 204.261719 150.75 246.445312 176.667969 272.371094 C 202.597656 298.289062 244.78125 298.277344 270.714844 272.371094 C 296.632812 246.445312 296.632812 204.261719 270.714844 178.335938 C 257.75 165.375 240.726562 158.894531 223.691406 158.894531 Z M 223.691406 158.894531 " fill-opacity="1" fill-rule="nonzero"/><path fill="#BB5933" d="M 323.429688 358.332031 C 314.910156 358.332031 306.394531 355.089844 299.910156 348.613281 L 252.757812 301.453125 C 248.429688 297.125 248.429688 290.113281 252.757812 285.785156 C 257.089844 281.457031 264.101562 281.457031 268.429688 285.785156 L 315.582031 332.9375 C 319.910156 337.253906 326.945312 337.261719 331.273438 332.929688 C 333.363281 330.847656 334.511719 328.0625 334.511719 325.089844 C 334.511719 322.121094 333.363281 319.332031 331.273438 317.246094 L 284.121094 270.09375 C 279.792969 265.761719 279.792969 258.75 284.121094 254.421875 C 288.449219 250.09375 295.464844 250.09375 299.792969 254.421875 L 346.945312 301.574219 C 359.910156 314.539062 359.910156 335.644531 346.945312 348.609375 C 340.460938 355.089844 331.945312 358.332031 323.429688 358.332031 Z M 323.429688 358.332031 " fill-opacity="1" fill-rule="nonzero"/></svg>